<svg xmlns="http://www.w3.org/2000/svg" fill="none" viewBox="0 0 16 16">
  <g clip-path="url(#ut_JtmWdBa)">
    <path opacity=".4" d="M5.035 11.332c-.272-.271-.13-.195-.785-.37a2.254 2.254 0 01-.795-.416l-1.417 3.476a.5.5 0 00.482.688l1.646-.063L5.3 15.845a.5.5 0 00.826-.155L7.75 11.7a2.274 2.274 0 01-1.103.299c-.61 0-1.182-.237-1.613-.668zm8.928 2.69l-1.418-3.476a2.25 2.25 0 01-.795.416c-.658.176-.514.1-.785.37-.43.43-1.004.668-1.613.668-.389 0-.765-.11-1.104-.3l1.627 3.989a.5.5 0 00.826.155l1.133-1.196 1.646.062a.5.5 0 00.482-.688zm-3.744-3.397c.477-.486.532-.444 1.212-.63a1.27 1.27 0 00.89-.905c.233-.888.173-.78.81-1.43.318-.323.442-.795.326-1.237-.233-.886-.234-.763 0-1.65a1.296 1.296 0 00-.325-1.237c-.638-.65-.578-.543-.811-1.43a1.27 1.27 0 00-.89-.906c-.871-.238-.766-.175-1.405-.825A1.244 1.244 0 008.811.043c-.871.238-.75.238-1.622 0a1.243 1.243 0 00-1.215.332c-.638.65-.533.587-1.405.825a1.27 1.27 0 00-.89.906c-.233.887-.172.78-.81 1.43a1.296 1.296 0 00-.326 1.236c.234.887.234.763 0 1.651-.116.442.008.914.326 1.237.638.65.577.542.81 1.43.117.442.456.787.89.906.7.19.752.16 1.212.629.414.42 1.058.496 1.555.182a1.24 1.24 0 011.329 0c.496.314 1.14.239 1.554-.182zM5.052 5.499c0-1.657 1.32-3 2.948-3s2.948 1.343 2.948 3-1.32 3-2.948 3-2.948-1.343-2.948-3z" fill="#9FA2B4"/>
  </g>
  <defs>
    <clipPath id="ut_JtmWdBa">
      <path fill="#fff" d="M0 0h16v16H0z"/>
    </clipPath>
  </defs>
</svg>
