<svg xmlns="http://www.w3.org/2000/svg" fill="none" viewBox="0 0 605 330">
  <mask id="r_aRSvdUxOb" style="mask-type:alpha" maskUnits="userSpaceOnUse" x="0" y="0" width="605" height="330">
    <path d="M103.608 118.31C56.69 116.649 12.074 194.633 0 227.151v102.773h604.85v-256.5c-55.975-2.5-73.676-58.895-116.584-58.895s-81.646 81.64-103.495 124.535c-17.94 38.191-40.824 46.355-50.023 45.663-42.778 1.661-75.322-83.715-86.246-126.61C238.842 9.962 227.967 0 222.628 0c-8.958-.031-22.424 14.114-36.224 62.268-13.799 48.154-35.648 61.576-44.848 62.268-12.867.968-28.173-6.226-37.948-6.226z" fill="url(#r_aRSvdUxOa)"/>
  </mask>
  <g mask="url(#r_aRSvdUxOb)">
    <path opacity=".1" d="M103.608 118.31C56.69 116.649 12.074 194.633 0 227.151v102.773h604.85v-256.5c-55.975-2.5-73.676-58.895-116.584-58.895s-81.646 81.64-103.495 124.535c-17.94 38.191-40.824 46.355-50.023 45.663-42.778 1.661-75.322-83.715-86.246-126.61C238.842 9.962 227.967 0 222.628 0c-8.958-.031-22.424 14.114-36.224 62.268-13.799 48.154-35.648 61.576-44.848 62.268-12.867.968-28.173-6.226-37.948-6.226z" fill="#3751FF"/>
  </g>
  <defs>
    <linearGradient id="r_aRSvdUxOa" x1="585.131" y1="169.424" x2="7.132" y2="169.424" gradientUnits="userSpaceOnUse">
      <stop stop-color="#fff" stop-opacity="0"/>
      <stop offset="1" stop-color="#fff"/>
    </linearGradient>
  </defs>
</svg>
