<svg xmlns="http://www.w3.org/2000/svg" fill="none" viewBox="0 0 66 38">
  <mask id="MUZT-yK7kLa" maskUnits="userSpaceOnUse" x="0" y="0" width="66" height="38" fill="#000">
    <path fill="#fff" d="M0 0h66v38H0z"/>
    <path fill-rule="evenodd" clip-rule="evenodd" d="M5 1h56a4 4 0 014 4v22a4 4 0 01-4 4H40l-6.74 5.777a.4.4 0 01-.52 0L26 31H5a4 4 0 01-4-4V5a4 4 0 014-4z"/>
  </mask>
  <path fill-rule="evenodd" clip-rule="evenodd" d="M5 1h56a4 4 0 014 4v22a4 4 0 01-4 4H40l-6.74 5.777a.4.4 0 01-.52 0L26 31H5a4 4 0 01-4-4V5a4 4 0 014-4z" fill="#fff"/>
  <path d="M61 31v.5-.5zm-21 0v-.5h-.185l-.14.12L40 31zm-6.74 5.777l-.325-.38.325.38zm-.52 0l.325-.38-.325.38zM26 31l.325-.38-.14-.12H26v.5zM5 31v.5-.5zM61 .5H5v1h56v-1zM65.5 5A4.5 4.5 0 0061 .5v1A3.5 3.5 0 0164.5 5h1zm0 22V5h-1v22h1zM61 31.5a4.5 4.5 0 004.5-4.5h-1a3.5 3.5 0 01-3.5 3.5v1zm-21 0h21v-1H40v1zm-.325-.88l-6.74 5.777.65.76 6.74-5.777-.65-.76zm-6.74 5.777a.1.1 0 01.13 0l-.65.76a.9.9 0 001.17 0l-.65-.76zm.13 0l-6.74-5.777-.65.76 6.74 5.777.65-.76zM5 31.5h21v-1H5v1zM.5 27A4.5 4.5 0 005 31.5v-1A3.5 3.5 0 011.5 27h-1zm0-22v22h1V5h-1zM5 .5A4.5 4.5 0 00.5 5h1A3.5 3.5 0 015 1.5v-1z" fill="#DFE0EB" mask="url(#MUZT-yK7kLa)"/>
</svg>
